<svg width="313" height="84" viewBox="0 0 313 84" fill="none" xmlns="http://www.w3.org/2000/svg">
<path d="M51.9389 43.1818C51.9389 48.8127 50.8716 53.6032 48.7369 57.5533C46.619 61.5033 43.7279 64.5205 40.0636 66.6048C36.4161 68.6722 32.3148 69.706 27.7596 69.706C23.1708 69.706 19.0527 68.6638 15.4052 66.5795C11.7577 64.4953 8.875 61.4781 6.7571 57.5281C4.6392 53.578 3.58026 48.7959 3.58026 43.1818C3.58026 37.5509 4.6392 32.7604 6.7571 28.8104C8.875 24.8603 11.7577 21.8516 15.4052 19.7841C19.0527 17.6998 23.1708 16.6577 27.7596 16.6577C32.3148 16.6577 36.4161 17.6998 40.0636 19.7841C43.7279 21.8516 46.619 24.8603 48.7369 28.8104C50.8716 32.7604 51.9389 37.5509 51.9389 43.1818ZM40.8704 43.1818C40.8704 39.5343 40.3241 36.4583 39.2315 33.9538C38.1558 31.4493 36.6346 29.55 34.668 28.2557C32.7014 26.9614 30.3986 26.3143 27.7596 26.3143C25.1206 26.3143 22.8178 26.9614 20.8512 28.2557C18.8846 29.55 17.355 31.4493 16.2624 33.9538C15.1867 36.4583 14.6488 39.5343 14.6488 43.1818C14.6488 46.8293 15.1867 49.9053 16.2624 52.4098C17.355 54.9143 18.8846 56.8137 20.8512 58.108C22.8178 59.4022 25.1206 60.0494 27.7596 60.0494C30.3986 60.0494 32.7014 59.4022 34.668 58.108C36.6346 56.8137 38.1558 54.9143 39.2315 52.4098C40.3241 49.9053 40.8704 46.8293 40.8704 43.1818ZM59.8243 83.5227V30.2727H70.4138V36.7777H70.8928C71.3635 35.7356 72.0442 34.6766 72.9351 33.6009C73.8428 32.5083 75.0194 31.6006 76.4649 30.8778C77.9273 30.1383 79.7426 29.7685 81.911 29.7685C84.7348 29.7685 87.3402 30.508 89.727 31.9872C92.1138 33.4496 94.0216 35.6599 95.4504 38.6183C96.8791 41.5598 97.5935 45.2493 97.5935 49.6868C97.5935 54.0066 96.8959 57.6541 95.5008 60.6293C94.1225 63.5876 92.2399 65.8316 89.8531 67.3612C87.483 68.8739 84.8273 69.6303 81.8857 69.6303C79.8015 69.6303 78.0281 69.2857 76.5658 68.5966C75.1202 67.9074 73.9352 67.0418 73.0107 65.9996C72.0863 64.9407 71.3803 63.8733 70.8928 62.7976H70.5651V83.5227H59.8243ZM70.3382 49.6364C70.3382 51.9392 70.6575 53.9478 71.2963 55.6623C71.935 57.3768 72.8595 58.7131 74.0697 59.6712C75.2799 60.6125 76.7507 61.0831 78.482 61.0831C80.2301 61.0831 81.7093 60.604 82.9195 59.646C84.1297 58.671 85.0458 57.3263 85.6677 55.6119C86.3064 53.8806 86.6258 51.8887 86.6258 49.6364C86.6258 47.4008 86.3148 45.4342 85.6929 43.7365C85.071 42.0388 84.1549 40.7109 82.9447 39.7528C81.7345 38.7947 80.2469 38.3157 78.482 38.3157C76.7339 38.3157 75.2547 38.7779 74.0445 39.7024C72.8511 40.6269 71.935 41.938 71.2963 43.6357C70.6575 45.3333 70.3382 47.3336 70.3382 49.6364ZM122.403 69.7564C118.419 69.7564 114.991 68.9496 112.116 67.3359C109.259 65.7055 107.057 63.4027 105.51 60.4276C103.964 57.4356 103.191 53.8974 103.191 49.8129C103.191 45.8292 103.964 42.333 105.51 39.3242C107.057 36.3155 109.234 33.9706 112.041 32.2898C114.864 30.6089 118.176 29.7685 121.975 29.7685C124.529 29.7685 126.908 30.1803 129.11 31.0039C131.329 31.8107 133.262 33.0294 134.909 34.6598C136.573 36.2902 137.867 38.3409 138.792 40.8118C139.716 43.2659 140.178 46.1402 140.178 49.4347V52.3846H107.477V45.7283H130.068C130.068 44.1819 129.732 42.812 129.059 41.6186C128.387 40.4252 127.454 39.4923 126.261 38.82C125.084 38.1308 123.714 37.7862 122.151 37.7862C120.521 37.7862 119.075 38.1644 117.814 38.9208C116.571 39.6604 115.596 40.6605 114.89 41.9212C114.184 43.165 113.822 44.5517 113.805 46.0813V52.4098C113.805 54.326 114.158 55.9817 114.864 57.3768C115.587 58.7719 116.604 59.8477 117.915 60.604C119.226 61.3604 120.781 61.7386 122.58 61.7386C123.773 61.7386 124.866 61.5705 125.857 61.2344C126.849 60.8982 127.698 60.3939 128.404 59.7216C129.11 59.0492 129.648 58.2256 130.017 57.2507L139.951 57.9062C139.447 60.2931 138.413 62.3774 136.85 64.1591C135.304 65.924 133.304 67.3023 130.85 68.294C128.412 69.2689 125.597 69.7564 122.403 69.7564ZM157.928 46.6108V69H147.188V30.2727H157.424V37.1055H157.878C158.735 34.8531 160.172 33.0714 162.189 31.7603C164.206 30.4324 166.652 29.7685 169.526 29.7685C172.216 29.7685 174.561 30.3568 176.561 31.5334C178.561 32.71 180.116 34.3909 181.225 36.576C182.335 38.7443 182.889 41.3329 182.889 44.3416V69H172.149V46.2578C172.165 43.8878 171.56 42.0388 170.333 40.7109C169.106 39.3662 167.417 38.6939 165.265 38.6939C163.82 38.6939 162.542 39.0049 161.433 39.6268C160.34 40.2487 159.483 41.1564 158.861 42.3498C158.256 43.5264 157.945 44.9467 157.928 46.6108ZM223.577 41.3161L213.744 41.9212C213.576 41.0807 213.214 40.3243 212.66 39.652C212.105 38.9628 211.374 38.4165 210.466 38.0131C209.575 37.5929 208.508 37.3828 207.264 37.3828C205.6 37.3828 204.196 37.7358 203.053 38.4418C201.91 39.1309 201.339 40.0554 201.339 41.2152C201.339 42.1397 201.709 42.9213 202.448 43.56C203.188 44.1987 204.457 44.7114 206.256 45.098L213.265 46.5099C217.03 47.2831 219.837 48.527 221.686 50.2415C223.535 51.956 224.459 54.2083 224.459 56.9986C224.459 59.5367 223.711 61.7638 222.215 63.68C220.736 65.5962 218.702 67.0922 216.114 68.168C213.542 69.2269 210.575 69.7564 207.214 69.7564C202.087 69.7564 198.002 68.689 194.96 66.5543C191.934 64.4028 190.161 61.4781 189.64 57.7802L200.204 57.2255C200.524 58.7887 201.297 59.9821 202.524 60.8058C203.751 61.6126 205.323 62.016 207.239 62.016C209.121 62.016 210.634 61.6546 211.777 60.9318C212.937 60.1922 213.525 59.2425 213.542 58.0827C213.525 57.1078 213.113 56.3094 212.307 55.6875C211.5 55.0488 210.256 54.5613 208.575 54.2251L201.868 52.8888C198.086 52.1325 195.271 50.8214 193.422 48.9556C191.59 47.0898 190.674 44.7114 190.674 41.8203C190.674 39.3326 191.346 37.1895 192.691 35.391C194.052 33.5924 195.96 32.2057 198.414 31.2308C200.885 30.2559 203.776 29.7685 207.088 29.7685C211.979 29.7685 215.828 30.8022 218.635 32.8697C221.459 34.9371 223.106 37.7526 223.577 41.3161ZM248.872 69.7564C244.888 69.7564 241.459 68.9496 238.585 67.3359C235.727 65.7055 233.526 63.4027 231.979 60.4276C230.433 57.4356 229.66 53.8974 229.66 49.8129C229.66 45.8292 230.433 42.333 231.979 39.3242C233.526 36.3155 235.702 33.9706 238.509 32.2898C241.333 30.6089 244.645 29.7685 248.443 29.7685C250.998 29.7685 253.377 30.1803 255.579 31.0039C257.797 31.8107 259.73 33.0294 261.378 34.6598C263.042 36.2902 264.336 38.3409 265.26 40.8118C266.185 43.2659 266.647 46.1402 266.647 49.4347V52.3846H233.946V45.7283H256.537C256.537 44.1819 256.2 42.812 255.528 41.6186C254.856 40.4252 253.923 39.4923 252.729 38.82C251.553 38.1308 250.183 37.7862 248.62 37.7862C246.989 37.7862 245.544 38.1644 244.283 38.9208C243.039 39.6604 242.064 40.6605 241.358 41.9212C240.652 43.165 240.291 44.5517 240.274 46.0813V52.4098C240.274 54.326 240.627 55.9817 241.333 57.3768C242.056 58.7719 243.073 59.8477 244.384 60.604C245.695 61.3604 247.25 61.7386 249.048 61.7386C250.242 61.7386 251.334 61.5705 252.326 61.2344C253.318 60.8982 254.167 60.3939 254.873 59.7216C255.579 59.0492 256.116 58.2256 256.486 57.2507L266.42 57.9062C265.916 60.2931 264.882 62.3774 263.319 64.1591C261.773 65.924 259.772 67.3023 257.318 68.294C254.881 69.2689 252.066 69.7564 248.872 69.7564ZM284.7 69.7312C282.229 69.7312 280.027 69.3026 278.094 68.4453C276.161 67.5713 274.631 66.2854 273.505 64.5877C272.396 62.8732 271.841 60.7385 271.841 58.1836C271.841 56.0321 272.236 54.2251 273.026 52.7628C273.816 51.3004 274.892 50.1238 276.253 49.233C277.615 48.3421 279.161 47.6697 280.892 47.2159C282.641 46.7621 284.473 46.4427 286.389 46.2578C288.641 46.0225 290.457 45.804 291.835 45.6023C293.213 45.3838 294.213 45.0644 294.835 44.6442C295.457 44.224 295.768 43.602 295.768 42.7784V42.6271C295.768 41.0303 295.264 39.7949 294.255 38.9208C293.264 38.0468 291.852 37.6097 290.02 37.6097C288.087 37.6097 286.549 38.0384 285.406 38.8956C284.263 39.736 283.506 40.795 283.136 42.0724L273.203 41.2656C273.707 38.9124 274.698 36.8785 276.178 35.1641C277.657 33.4328 279.565 32.1049 281.901 31.1804C284.254 30.2391 286.977 29.7685 290.07 29.7685C292.222 29.7685 294.281 30.0206 296.247 30.5249C298.231 31.0291 299.987 31.8107 301.517 32.8697C303.063 33.9286 304.282 35.2901 305.173 36.9542C306.064 38.6014 306.509 40.5765 306.509 42.8793V69H296.323V63.6296H296.02C295.398 64.8398 294.566 65.9072 293.524 66.8317C292.482 67.7393 291.23 68.4537 289.767 68.9748C288.305 69.479 286.616 69.7312 284.7 69.7312ZM287.776 62.3185C289.356 62.3185 290.751 62.0076 291.961 61.3857C293.171 60.7469 294.121 59.8897 294.81 58.8139C295.499 57.7382 295.844 56.5195 295.844 55.158V51.0483C295.508 51.2668 295.045 51.4685 294.457 51.6534C293.886 51.8215 293.238 51.9812 292.516 52.1325C291.793 52.2669 291.07 52.393 290.347 52.5107C289.625 52.6115 288.969 52.704 288.381 52.788C287.12 52.9729 286.019 53.267 285.078 53.6705C284.137 54.0739 283.405 54.6201 282.884 55.3093C282.363 55.9817 282.103 56.8221 282.103 57.8306C282.103 59.293 282.632 60.4107 283.691 61.1839C284.767 61.9403 286.128 62.3185 287.776 62.3185Z" fill="white"/>
</svg>
